<svg xmlns="http://www.w3.org/2000/svg" width="512" height="512" viewBox="0 0 512 512" role="img" aria-label="Ben 10 Protector of Earth">
  <defs>
    <linearGradient id="bg" x1="0" y1="0" x2="1" y2="1">
      <stop offset="0" stop-color="#09111f"/>
      <stop offset=".55" stop-color="#34d399"/>
      <stop offset="1" stop-color="#fde047"/>
    </linearGradient>
    <filter id="shadow" x="-20%" y="-20%" width="140%" height="150%">
      <feDropShadow dx="0" dy="16" stdDeviation="12" flood-color="#000" flood-opacity=".35"/>
    </filter>
    <clipPath id="round"><rect width="512" height="512" rx="82"/></clipPath>
  </defs>
  <g clip-path="url(#round)">
    <rect width="512" height="512" fill="url(#bg)"/>
    <circle cx="430" cy="76" r="138" fill="#fff" opacity=".14"/>
    <circle cx="74" cy="446" r="160" fill="#000" opacity=".18"/>
    <path d="M50 90c82 30 167 26 256-12s142-29 192 26v-154H50z" fill="#fff" opacity=".08"/>
    <g filter="url(#shadow)" transform="translate(0 -16)">
      
      <path d="M256 77l47 95 105 16-76 74 18 104-94-49-94 49 18-104-76-74 105-16z" fill="#34d399" stroke="#15120d" stroke-width="16" stroke-linecap="round" stroke-linejoin="round"/>
      <path d="M152 397c37-45 71-68 104-68s67 23 104 68" fill="none" stroke="#15120d" stroke-width="22" stroke-linecap="round"/>
      <circle cx="205" cy="238" r="18" fill="#15120d"/><circle cx="307" cy="238" r="18" fill="#15120d"/>
    </g>
    <rect x="0" y="358" width="512" height="154" fill="#090b10" opacity=".76"/>
    <text x="256" y="362.4" text-anchor="middle" font-family="Impact, 'Arial Black', sans-serif" font-size="36" letter-spacing="1.4" fill="#ffffff">BEN 10</text>
      <text x="256" y="402.4" text-anchor="middle" font-family="Impact, 'Arial Black', sans-serif" font-size="36" letter-spacing="1.4" fill="#ffffff">PROTECTOR OF</text>
      <text x="256" y="442.4" text-anchor="middle" font-family="Impact, 'Arial Black', sans-serif" font-size="36" letter-spacing="1.4" fill="#ffffff">EARTH</text>
    <rect x="19" y="19" width="474" height="474" rx="70" fill="none" stroke="#fff" stroke-width="8" opacity=".7"/>
  </g>
</svg>
