<svg xmlns="http://www.w3.org/2000/svg" width="512" height="512" viewBox="0 0 512 512" role="img" aria-label="Pixel Gun">
  <defs>
    <linearGradient id="bg" x1="0" y1="0" x2="1" y2="1">
      <stop offset="0" stop-color="#071a2c"/>
      <stop offset=".55" stop-color="#38bdf8"/>
      <stop offset="1" stop-color="#fb923c"/>
    </linearGradient>
    <filter id="shadow" x="-20%" y="-20%" width="140%" height="150%">
      <feDropShadow dx="0" dy="16" stdDeviation="12" flood-color="#000" flood-opacity=".35"/>
    </filter>
    <clipPath id="round"><rect width="512" height="512" rx="82"/></clipPath>
  </defs>
  <g clip-path="url(#round)">
    <rect width="512" height="512" fill="url(#bg)"/>
    <circle cx="430" cy="76" r="138" fill="#fff" opacity=".14"/>
    <circle cx="74" cy="446" r="160" fill="#000" opacity=".18"/>
    <path d="M50 90c82 30 167 26 256-12s142-29 192 26v-154H50z" fill="#fff" opacity=".08"/>
    <g filter="url(#shadow)" transform="translate(0 -16)">
      
      <circle cx="256" cy="262" r="126" fill="none" stroke="#15120d" stroke-width="16" stroke-linecap="round" stroke-linejoin="round"/>
      <circle cx="256" cy="262" r="45" fill="#fb923c" stroke="#15120d" stroke-width="16" stroke-linecap="round" stroke-linejoin="round"/>
      <path d="M256 96v70M256 358v70M90 262h70M352 262h70" stroke="#15120d" stroke-width="16" stroke-linecap="round" stroke-linejoin="round"/>
      <path d="M158 396l196-268" stroke="#38bdf8" stroke-width="24" stroke-linecap="round"/>
      <path d="M198 151l106 230" stroke="#fff" stroke-width="9" stroke-linecap="round" opacity=".8"/>
    </g>
    <rect x="0" y="358" width="512" height="154" fill="#090b10" opacity=".76"/>
    <text x="256" y="402" text-anchor="middle" font-family="Impact, 'Arial Black', sans-serif" font-size="48" letter-spacing="1.4" fill="#f8fafc">PIXEL GUN</text>
    <rect x="19" y="19" width="474" height="474" rx="70" fill="none" stroke="#fff" stroke-width="8" opacity=".7"/>
  </g>
</svg>
