<svg xmlns="http://www.w3.org/2000/svg" width="512" height="512" viewBox="0 0 512 512" role="img" aria-label="Soccer Legends">
  <defs>
    <linearGradient id="bg" x1="0" y1="0" x2="1" y2="1">
      <stop offset="0" stop-color="#211006"/>
      <stop offset=".55" stop-color="#f97316"/>
      <stop offset="1" stop-color="#84cc16"/>
    </linearGradient>
    <filter id="shadow" x="-20%" y="-20%" width="140%" height="150%">
      <feDropShadow dx="0" dy="16" stdDeviation="12" flood-color="#000" flood-opacity=".35"/>
    </filter>
    <clipPath id="round"><rect width="512" height="512" rx="82"/></clipPath>
  </defs>
  <g clip-path="url(#round)">
    <rect width="512" height="512" fill="url(#bg)"/>
    <circle cx="430" cy="76" r="138" fill="#fff" opacity=".14"/>
    <circle cx="74" cy="446" r="160" fill="#000" opacity=".18"/>
    <path d="M50 90c82 30 167 26 256-12s142-29 192 26v-154H50z" fill="#fff" opacity=".08"/>
    <g filter="url(#shadow)" transform="translate(0 -16)">
      
      <circle cx="256" cy="286" r="126" fill="#84cc16" stroke="#15120d" stroke-width="16" stroke-linecap="round" stroke-linejoin="round"/>
      <path d="M176 210c40 42 96 60 160 50M171 346c56-39 115-53 178-42M256 160v252M137 286h238" fill="none" stroke="#15120d" stroke-width="16" stroke-linecap="round" stroke-linejoin="round"/>
      <path d="M95 120h322v64H95z" fill="#f97316" stroke="#15120d" stroke-width="16" stroke-linecap="round" stroke-linejoin="round"/><path d="M130 152h252" stroke="#fff" stroke-width="10" stroke-linecap="round"/>
    </g>
    <rect x="0" y="358" width="512" height="154" fill="#090b10" opacity=".76"/>
    <text x="256" y="402" text-anchor="middle" font-family="Impact, 'Arial Black', sans-serif" font-size="48" letter-spacing="1.4" fill="#fff7ed">SOCCER LEGENDS</text>
    <rect x="19" y="19" width="474" height="474" rx="70" fill="none" stroke="#fff" stroke-width="8" opacity=".7"/>
  </g>
</svg>
