<svg xmlns="http://www.w3.org/2000/svg" width="512" height="288" viewBox="0 0 512 288" role="img" aria-label="A Small World Cup">
  <defs>
    <linearGradient id="g1106399056bg" x1="0" y1="0" x2="1" y2="1">
      <stop offset="0" stop-color="#312e81"/>
      <stop offset=".58" stop-color="#a855f7"/>
      <stop offset="1" stop-color="#f0abfc"/>
    </linearGradient>
    <filter id="g1106399056shadow" x="-20%" y="-20%" width="140%" height="140%">
      <feDropShadow dx="0" dy="12" stdDeviation="9" flood-color="#000" flood-opacity=".38"/>
    </filter>
    <pattern id="g1106399056dots" width="34" height="34" patternUnits="userSpaceOnUse">
      <circle cx="4" cy="4" r="2" fill="#fff" opacity=".2"/>
    </pattern>
  </defs>
  <rect width="512" height="288" rx="28" fill="url(#g1106399056bg)"/>
  <rect width="512" height="288" rx="28" fill="url(#g1106399056dots)" opacity=".7"/>
  <circle cx="430" cy="12" r="138" fill="#fff" opacity=".16"/>
  <circle cx="64" cy="298" r="166" fill="#000" opacity=".2"/>
  <g filter="url(#g1106399056shadow)" transform="translate(18 -6) scale(.9)">
    <circle cx="350" cy="155" r="72" fill="#f8fafc" opacity=".92"/><path d="M282 155h136M350 87v136M302 108c35 32 61 65 96 93M398 108c-35 32-61 65-96 93" stroke="#111827" stroke-width="10" opacity=".75"/>
  </g>
  <rect x="25" y="26" width="151" height="34" rx="17" fill="#111827" opacity=".82"/>
  <text x="43" y="49" font-size="18" font-family="Arial Black, Arial, sans-serif" fill="#fef3c7" letter-spacing="1.5">CROWN GAMES</text>
  <text x="34" y="188" font-size="45" font-family="Impact, Arial Black, sans-serif" fill="#fff" stroke="#111827" stroke-width="7" paint-order="stroke" letter-spacing=".5">A SMALL WORLD</text><text x="34" y="236" font-size="45" font-family="Impact, Arial Black, sans-serif" fill="#fff" stroke="#111827" stroke-width="7" paint-order="stroke" letter-spacing=".5">CUP</text>
</svg>
