<svg xmlns="http://www.w3.org/2000/svg" width="512" height="288" viewBox="0 0 512 288" role="img" aria-label="Dig To China">
  <defs>
    <linearGradient id="g1286874631bg" x1="0" y1="0" x2="1" y2="1">
      <stop offset="0" stop-color="#1d4ed8"/>
      <stop offset=".58" stop-color="#22d3ee"/>
      <stop offset="1" stop-color="#fef08a"/>
    </linearGradient>
    <filter id="g1286874631shadow" x="-20%" y="-20%" width="140%" height="140%">
      <feDropShadow dx="0" dy="12" stdDeviation="9" flood-color="#000" flood-opacity=".38"/>
    </filter>
    <pattern id="g1286874631dots" width="34" height="34" patternUnits="userSpaceOnUse">
      <circle cx="4" cy="4" r="2" fill="#fff" opacity=".2"/>
    </pattern>
  </defs>
  <rect width="512" height="288" rx="28" fill="url(#g1286874631bg)"/>
  <rect width="512" height="288" rx="28" fill="url(#g1286874631dots)" opacity=".7"/>
  <circle cx="430" cy="12" r="138" fill="#fff" opacity=".16"/>
  <circle cx="64" cy="298" r="166" fill="#000" opacity=".2"/>
  <g filter="url(#g1286874631shadow)" transform="translate(18 -6) scale(.9)">
    <rect x="244" y="74" width="150" height="150" rx="14" fill="#22c55e" stroke="#111827" stroke-width="12"/><path d="M244 148h150M319 74v150" stroke="#14532d" stroke-width="12" opacity=".55"/><rect x="271" y="126" width="30" height="28" fill="#111827"/><rect x="336" y="126" width="30" height="28" fill="#111827"/><path d="M279 182h80" stroke="#111827" stroke-width="13" stroke-linecap="round"/><path d="M389 74l51 51" stroke="#f8fafc" stroke-width="18" stroke-linecap="round"/><path d="M410 86l36-36" stroke="#facc15" stroke-width="18" stroke-linecap="round"/>
  </g>
  <rect x="25" y="24" width="168" height="38" rx="19" fill="#111827" opacity=".86"/>
  <text x="43" y="50" font-size="18" font-family="Arial Black, Arial, sans-serif" fill="#fef3c7" letter-spacing="1.5">CROWN GAMES</text>
  <rect x="32" y="78" width="130" height="72" rx="18" fill="#f8fafc" stroke="#111827" stroke-width="8" opacity=".92"/>
  <text x="97" y="126" text-anchor="middle" font-size="34" font-family="Arial Black, Arial, sans-serif" fill="#111827">DTC</text>
  <text x="34" y="188" font-size="62" font-family="Impact, Arial Black, sans-serif" fill="#fff" stroke="#111827" stroke-width="7" paint-order="stroke" letter-spacing=".5">DIG TO CHINA</text>
</svg>
