<svg xmlns="http://www.w3.org/2000/svg" width="512" height="288" viewBox="0 0 512 288" role="img" aria-label="Fox Simulator 3D">
  <defs>
    <linearGradient id="g2471469749bg" x1="0" y1="0" x2="1" y2="1">
      <stop offset="0" stop-color="#1d4ed8"/>
      <stop offset=".58" stop-color="#22d3ee"/>
      <stop offset="1" stop-color="#fef08a"/>
    </linearGradient>
    <filter id="g2471469749shadow" x="-20%" y="-20%" width="140%" height="140%">
      <feDropShadow dx="0" dy="12" stdDeviation="9" flood-color="#000" flood-opacity=".38"/>
    </filter>
    <pattern id="g2471469749dots" width="34" height="34" patternUnits="userSpaceOnUse">
      <circle cx="4" cy="4" r="2" fill="#fff" opacity=".2"/>
    </pattern>
  </defs>
  <rect width="512" height="288" rx="28" fill="url(#g2471469749bg)"/>
  <rect width="512" height="288" rx="28" fill="url(#g2471469749dots)" opacity=".7"/>
  <circle cx="430" cy="12" r="138" fill="#fff" opacity=".16"/>
  <circle cx="64" cy="298" r="166" fill="#000" opacity=".2"/>
  <g filter="url(#g2471469749shadow)" transform="translate(18 -6) scale(.9)">
    <rect x="110" y="82" width="108" height="108" rx="22" fill="#f8fafc" opacity=".95" transform="rotate(-10 164 136)"/><rect x="144" y="115" width="40" height="40" rx="7" fill="#111827" opacity=".78" transform="rotate(-10 164 136)"/><rect x="268" y="92" width="110" height="110" rx="24" fill="#facc15" opacity=".95" transform="rotate(12 323 147)"/><rect x="304" y="128" width="40" height="40" rx="7" fill="#111827" opacity=".78" transform="rotate(12 323 147)"/><path d="M138 256c40-36 79-53 118-50 42 3 78 23 118 50" fill="none" stroke="#f8fafc" stroke-width="22" stroke-linecap="round" opacity=".8"/>
  </g>
  <rect x="25" y="26" width="151" height="34" rx="17" fill="#111827" opacity=".82"/>
  <text x="43" y="49" font-size="18" font-family="Arial Black, Arial, sans-serif" fill="#fef3c7" letter-spacing="1.5">CROWN GAMES</text>
  <text x="34" y="188" font-size="45" font-family="Impact, Arial Black, sans-serif" fill="#fff" stroke="#111827" stroke-width="7" paint-order="stroke" letter-spacing=".5">FOX SIMULATOR</text><text x="34" y="236" font-size="45" font-family="Impact, Arial Black, sans-serif" fill="#fff" stroke="#111827" stroke-width="7" paint-order="stroke" letter-spacing=".5">3D</text>
</svg>
