<svg xmlns="http://www.w3.org/2000/svg" width="512" height="288" viewBox="0 0 512 288" role="img" aria-label="Hobo vs. zombies">
  <defs>
    <linearGradient id="g114858901bg" x1="0" y1="0" x2="1" y2="1">
      <stop offset="0" stop-color="#312e81"/>
      <stop offset=".58" stop-color="#a855f7"/>
      <stop offset="1" stop-color="#f0abfc"/>
    </linearGradient>
    <filter id="g114858901shadow" x="-20%" y="-20%" width="140%" height="140%">
      <feDropShadow dx="0" dy="12" stdDeviation="9" flood-color="#000" flood-opacity=".38"/>
    </filter>
    <pattern id="g114858901dots" width="34" height="34" patternUnits="userSpaceOnUse">
      <circle cx="4" cy="4" r="2" fill="#fff" opacity=".2"/>
    </pattern>
  </defs>
  <rect width="512" height="288" rx="28" fill="url(#g114858901bg)"/>
  <rect width="512" height="288" rx="28" fill="url(#g114858901dots)" opacity=".7"/>
  <circle cx="430" cy="12" r="138" fill="#fff" opacity=".16"/>
  <circle cx="64" cy="298" r="166" fill="#000" opacity=".2"/>
  <g filter="url(#g114858901shadow)" transform="translate(18 -6) scale(.9)">
    <circle cx="276" cy="142" r="60" fill="#22c55e" stroke="#111827" stroke-width="11"/><path d="M252 111c39-50 90-62 155-35-14 62-51 97-110 106" fill="#16a34a" stroke="#111827" stroke-width="9" stroke-linejoin="round"/><circle cx="260" cy="134" r="9" fill="#111827"/><circle cx="297" cy="134" r="9" fill="#111827"/><path d="M279 203v55" stroke="#14532d" stroke-width="16" stroke-linecap="round"/>
  </g>
  <rect x="25" y="24" width="168" height="38" rx="19" fill="#111827" opacity=".86"/>
  <text x="43" y="50" font-size="18" font-family="Arial Black, Arial, sans-serif" fill="#fef3c7" letter-spacing="1.5">CROWN GAMES</text>
  <rect x="32" y="78" width="130" height="72" rx="18" fill="#f8fafc" stroke="#111827" stroke-width="8" opacity=".92"/>
  <text x="97" y="126" text-anchor="middle" font-size="34" font-family="Arial Black, Arial, sans-serif" fill="#111827">HVZ</text>
  <text x="34" y="188" font-size="47" font-family="Impact, Arial Black, sans-serif" fill="#fff" stroke="#111827" stroke-width="7" paint-order="stroke" letter-spacing=".5">HOBO VS.</text><text x="34" y="238" font-size="47" font-family="Impact, Arial Black, sans-serif" fill="#fff" stroke="#111827" stroke-width="7" paint-order="stroke" letter-spacing=".5">ZOMBIES</text>
</svg>
