<svg xmlns="http://www.w3.org/2000/svg" width="512" height="288" viewBox="0 0 512 288" role="img" aria-label="Hollow knight">
  <defs>
    <linearGradient id="g3741594390bg" x1="0" y1="0" x2="1" y2="1">
      <stop offset="0" stop-color="#1d4ed8"/>
      <stop offset=".58" stop-color="#22d3ee"/>
      <stop offset="1" stop-color="#fef08a"/>
    </linearGradient>
    <filter id="g3741594390shadow" x="-20%" y="-20%" width="140%" height="140%">
      <feDropShadow dx="0" dy="12" stdDeviation="9" flood-color="#000" flood-opacity=".38"/>
    </filter>
    <pattern id="g3741594390dots" width="34" height="34" patternUnits="userSpaceOnUse">
      <circle cx="4" cy="4" r="2" fill="#fff" opacity=".2"/>
    </pattern>
  </defs>
  <rect width="512" height="288" rx="28" fill="url(#g3741594390bg)"/>
  <rect width="512" height="288" rx="28" fill="url(#g3741594390dots)" opacity=".7"/>
  <circle cx="430" cy="12" r="138" fill="#fff" opacity=".16"/>
  <circle cx="64" cy="298" r="166" fill="#000" opacity=".2"/>
  <g filter="url(#g3741594390shadow)" transform="translate(18 -6) scale(.9)">
    <path d="M158 96l64 64 58-91 53 91 74-58-28 150H129z" fill="#facc15" stroke="#111827" stroke-width="13" stroke-linejoin="round"/><rect x="124" y="249" width="260" height="38" rx="12" fill="#f8fafc" stroke="#111827" stroke-width="10"/>
  </g>
  <rect x="25" y="24" width="168" height="38" rx="19" fill="#111827" opacity=".86"/>
  <text x="43" y="50" font-size="18" font-family="Arial Black, Arial, sans-serif" fill="#fef3c7" letter-spacing="1.5">CROWN GAMES</text>
  <rect x="32" y="78" width="130" height="72" rx="18" fill="#f8fafc" stroke="#111827" stroke-width="8" opacity=".92"/>
  <text x="97" y="126" text-anchor="middle" font-size="42" font-family="Arial Black, Arial, sans-serif" fill="#111827">HK</text>
  <text x="34" y="188" font-size="62" font-family="Impact, Arial Black, sans-serif" fill="#fff" stroke="#111827" stroke-width="7" paint-order="stroke" letter-spacing=".5">HOLLOW KNIGHT</text>
</svg>
