<svg xmlns="http://www.w3.org/2000/svg" width="512" height="288" viewBox="0 0 512 288" role="img" aria-label="Idle Breakout">
  <defs>
    <linearGradient id="g1104692761bg" x1="0" y1="0" x2="1" y2="1">
      <stop offset="0" stop-color="#6d28d9"/>
      <stop offset=".58" stop-color="#f97316"/>
      <stop offset="1" stop-color="#facc15"/>
    </linearGradient>
    <filter id="g1104692761shadow" x="-20%" y="-20%" width="140%" height="140%">
      <feDropShadow dx="0" dy="12" stdDeviation="9" flood-color="#000" flood-opacity=".38"/>
    </filter>
    <pattern id="g1104692761dots" width="34" height="34" patternUnits="userSpaceOnUse">
      <circle cx="4" cy="4" r="2" fill="#fff" opacity=".2"/>
    </pattern>
  </defs>
  <rect width="512" height="288" rx="28" fill="url(#g1104692761bg)"/>
  <rect width="512" height="288" rx="28" fill="url(#g1104692761dots)" opacity=".7"/>
  <circle cx="430" cy="12" r="138" fill="#fff" opacity=".16"/>
  <circle cx="64" cy="298" r="166" fill="#000" opacity=".2"/>
  <g filter="url(#g1104692761shadow)" transform="translate(18 -6) scale(.9)">
    <path d="M331 77c48 28 72 77 62 134-10 58-50 94-107 101-58 7-106-18-132-69l61-22c15 28 37 40 67 36 31-4 50-22 56-52 6-31-7-56-36-73z" fill="#f8fafc" opacity=".88"/><path d="M187 282l-55-154 152 58-61 31 54 54-36 36-54-54z" fill="#facc15" stroke="#111827" stroke-width="8" stroke-linejoin="round"/>
  </g>
  <rect x="25" y="26" width="151" height="34" rx="17" fill="#111827" opacity=".82"/>
  <text x="43" y="49" font-size="18" font-family="Arial Black, Arial, sans-serif" fill="#fef3c7" letter-spacing="1.5">CROWN GAMES</text>
  <text x="34" y="188" font-size="58" font-family="Impact, Arial Black, sans-serif" fill="#fff" stroke="#111827" stroke-width="7" paint-order="stroke" letter-spacing=".5">IDLE BREAKOUT</text>
</svg>
