<svg xmlns="http://www.w3.org/2000/svg" width="512" height="288" viewBox="0 0 512 288" role="img" aria-label="Jigsaw Photo Puzzle Summer">
  <defs>
    <linearGradient id="g3490113166bg" x1="0" y1="0" x2="1" y2="1">
      <stop offset="0" stop-color="#1d4ed8"/>
      <stop offset=".58" stop-color="#22d3ee"/>
      <stop offset="1" stop-color="#fef08a"/>
    </linearGradient>
    <filter id="g3490113166shadow" x="-20%" y="-20%" width="140%" height="140%">
      <feDropShadow dx="0" dy="12" stdDeviation="9" flood-color="#000" flood-opacity=".38"/>
    </filter>
    <pattern id="g3490113166dots" width="34" height="34" patternUnits="userSpaceOnUse">
      <circle cx="4" cy="4" r="2" fill="#fff" opacity=".2"/>
    </pattern>
  </defs>
  <rect width="512" height="288" rx="28" fill="url(#g3490113166bg)"/>
  <rect width="512" height="288" rx="28" fill="url(#g3490113166dots)" opacity=".7"/>
  <circle cx="430" cy="12" r="138" fill="#fff" opacity=".16"/>
  <circle cx="64" cy="298" r="166" fill="#000" opacity=".2"/>
  <g filter="url(#g3490113166shadow)" transform="translate(18 -6) scale(.9)">
    <path d="M304 82h70v64h64v70h-64v64h-70v-64h-64v-70h64z" fill="#f8fafc" opacity=".9"/><rect x="88" y="178" width="162" height="118" rx="22" fill="#111827" opacity=".78"/><path d="M110 228h118M110 262h76" stroke="#facc15" stroke-width="13" stroke-linecap="round"/>
  </g>
  <rect x="25" y="26" width="151" height="34" rx="17" fill="#111827" opacity=".82"/>
  <text x="43" y="49" font-size="18" font-family="Arial Black, Arial, sans-serif" fill="#fef3c7" letter-spacing="1.5">CROWN GAMES</text>
  <text x="34" y="188" font-size="45" font-family="Impact, Arial Black, sans-serif" fill="#fff" stroke="#111827" stroke-width="7" paint-order="stroke" letter-spacing=".5">JIGSAW PHOTO</text><text x="34" y="236" font-size="45" font-family="Impact, Arial Black, sans-serif" fill="#fff" stroke="#111827" stroke-width="7" paint-order="stroke" letter-spacing=".5">PUZZLE SUMMER</text>
</svg>
