<svg xmlns="http://www.w3.org/2000/svg" width="512" height="288" viewBox="0 0 512 288" role="img" aria-label="Kirby Adventure Remake/Katam">
  <defs>
    <linearGradient id="g781579678bg" x1="0" y1="0" x2="1" y2="1">
      <stop offset="0" stop-color="#111827"/>
      <stop offset=".58" stop-color="#64748b"/>
      <stop offset="1" stop-color="#ffffff"/>
    </linearGradient>
    <filter id="g781579678shadow" x="-20%" y="-20%" width="140%" height="140%">
      <feDropShadow dx="0" dy="12" stdDeviation="9" flood-color="#000" flood-opacity=".38"/>
    </filter>
    <pattern id="g781579678dots" width="34" height="34" patternUnits="userSpaceOnUse">
      <circle cx="4" cy="4" r="2" fill="#fff" opacity=".2"/>
    </pattern>
  </defs>
  <rect width="512" height="288" rx="28" fill="url(#g781579678bg)"/>
  <rect width="512" height="288" rx="28" fill="url(#g781579678dots)" opacity=".7"/>
  <circle cx="430" cy="12" r="138" fill="#fff" opacity=".16"/>
  <circle cx="64" cy="298" r="166" fill="#000" opacity=".2"/>
  <g filter="url(#g781579678shadow)" transform="translate(18 -6) scale(.9)">
    <circle cx="318" cy="151" r="82" fill="#fb8fc6" stroke="#111827" stroke-width="12"/><ellipse cx="251" cy="199" rx="45" ry="22" fill="#ef4444" stroke="#111827" stroke-width="9" transform="rotate(-16 251 199)"/><ellipse cx="386" cy="199" rx="45" ry="22" fill="#ef4444" stroke="#111827" stroke-width="9" transform="rotate(16 386 199)"/><ellipse cx="292" cy="135" rx="13" ry="24" fill="#111827"/><ellipse cx="344" cy="135" rx="13" ry="24" fill="#111827"/><path d="M297 186c15 11 29 11 44 0" stroke="#111827" stroke-width="9" stroke-linecap="round"/>
  </g>
  <rect x="25" y="24" width="168" height="38" rx="19" fill="#111827" opacity=".86"/>
  <text x="43" y="50" font-size="18" font-family="Arial Black, Arial, sans-serif" fill="#fef3c7" letter-spacing="1.5">CROWN GAMES</text>
  <rect x="32" y="78" width="130" height="72" rx="18" fill="#f8fafc" stroke="#111827" stroke-width="8" opacity=".92"/>
  <text x="97" y="126" text-anchor="middle" font-size="34" font-family="Arial Black, Arial, sans-serif" fill="#111827">KAR</text>
  <text x="34" y="188" font-size="35" font-family="Impact, Arial Black, sans-serif" fill="#fff" stroke="#111827" stroke-width="7" paint-order="stroke" letter-spacing=".5">KIRBY</text><text x="34" y="226" font-size="35" font-family="Impact, Arial Black, sans-serif" fill="#fff" stroke="#111827" stroke-width="7" paint-order="stroke" letter-spacing=".5">ADVENTURE</text><text x="34" y="264" font-size="35" font-family="Impact, Arial Black, sans-serif" fill="#fff" stroke="#111827" stroke-width="7" paint-order="stroke" letter-spacing=".5">REMAKE/KATAM</text>
</svg>
