<svg xmlns="http://www.w3.org/2000/svg" width="512" height="288" viewBox="0 0 512 288" role="img" aria-label="Koopas Revenge 2">
  <defs>
    <linearGradient id="g4272848606bg" x1="0" y1="0" x2="1" y2="1">
      <stop offset="0" stop-color="#6d28d9"/>
      <stop offset=".58" stop-color="#f97316"/>
      <stop offset="1" stop-color="#facc15"/>
    </linearGradient>
    <filter id="g4272848606shadow" x="-20%" y="-20%" width="140%" height="140%">
      <feDropShadow dx="0" dy="12" stdDeviation="9" flood-color="#000" flood-opacity=".38"/>
    </filter>
    <pattern id="g4272848606dots" width="34" height="34" patternUnits="userSpaceOnUse">
      <circle cx="4" cy="4" r="2" fill="#fff" opacity=".2"/>
    </pattern>
  </defs>
  <rect width="512" height="288" rx="28" fill="url(#g4272848606bg)"/>
  <rect width="512" height="288" rx="28" fill="url(#g4272848606dots)" opacity=".7"/>
  <circle cx="430" cy="12" r="138" fill="#fff" opacity=".16"/>
  <circle cx="64" cy="298" r="166" fill="#000" opacity=".2"/>
  <g filter="url(#g4272848606shadow)" transform="translate(18 -6) scale(.9)">
    <circle cx="318" cy="153" r="78" fill="#f8d8b7" stroke="#111827" stroke-width="12"/><path d="M245 121c22-70 122-74 151 0z" fill="#ef2424" stroke="#111827" stroke-width="12"/><circle cx="318" cy="99" r="31" fill="#fff" stroke="#111827" stroke-width="8"/><text x="318" y="111" text-anchor="middle" font-size="34" font-family="Arial Black, Arial" fill="#ef2424">M</text><path d="M278 176c34 24 72 24 107 0" stroke="#111827" stroke-width="12" stroke-linecap="round"/><path d="M278 145h80" stroke="#111827" stroke-width="13" stroke-linecap="round"/>
  </g>
  <rect x="25" y="24" width="168" height="38" rx="19" fill="#111827" opacity=".86"/>
  <text x="43" y="50" font-size="18" font-family="Arial Black, Arial, sans-serif" fill="#fef3c7" letter-spacing="1.5">CROWN GAMES</text>
  <rect x="32" y="78" width="130" height="72" rx="18" fill="#f8fafc" stroke="#111827" stroke-width="8" opacity=".92"/>
  <text x="97" y="126" text-anchor="middle" font-size="34" font-family="Arial Black, Arial, sans-serif" fill="#111827">KR2</text>
  <text x="34" y="188" font-size="47" font-family="Impact, Arial Black, sans-serif" fill="#fff" stroke="#111827" stroke-width="7" paint-order="stroke" letter-spacing=".5">KOOPAS REVENGE</text><text x="34" y="238" font-size="47" font-family="Impact, Arial Black, sans-serif" fill="#fff" stroke="#111827" stroke-width="7" paint-order="stroke" letter-spacing=".5">2</text>
</svg>
