<svg xmlns="http://www.w3.org/2000/svg" width="512" height="288" viewBox="0 0 512 288" role="img" aria-label="Madalin Stunt Cars 3">
  <defs>
    <linearGradient id="g1940835328bg" x1="0" y1="0" x2="1" y2="1">
      <stop offset="0" stop-color="#1d4ed8"/>
      <stop offset=".58" stop-color="#22d3ee"/>
      <stop offset="1" stop-color="#fef08a"/>
    </linearGradient>
    <filter id="g1940835328shadow" x="-20%" y="-20%" width="140%" height="140%">
      <feDropShadow dx="0" dy="12" stdDeviation="9" flood-color="#000" flood-opacity=".38"/>
    </filter>
    <pattern id="g1940835328dots" width="34" height="34" patternUnits="userSpaceOnUse">
      <circle cx="4" cy="4" r="2" fill="#fff" opacity=".2"/>
    </pattern>
  </defs>
  <rect width="512" height="288" rx="28" fill="url(#g1940835328bg)"/>
  <rect width="512" height="288" rx="28" fill="url(#g1940835328dots)" opacity=".7"/>
  <circle cx="430" cy="12" r="138" fill="#fff" opacity=".16"/>
  <circle cx="64" cy="298" r="166" fill="#000" opacity=".2"/>
  <g filter="url(#g1940835328shadow)" transform="translate(18 -6) scale(.9)">
    <path d="M135 187h242l38 44v44h-34a45 45 0 0 0-88 0h-74a45 45 0 0 0-88 0H96v-50l39-38z" fill="#111827" opacity=".82"/><circle cx="175" cy="278" r="29" fill="#f8fafc"/><circle cx="337" cy="278" r="29" fill="#f8fafc"/><path d="M171 204h129l30 31H138l33-31z" fill="#38bdf8"/>
  </g>
  <rect x="25" y="26" width="151" height="34" rx="17" fill="#111827" opacity=".82"/>
  <text x="43" y="49" font-size="18" font-family="Arial Black, Arial, sans-serif" fill="#fef3c7" letter-spacing="1.5">CROWN GAMES</text>
  <text x="34" y="188" font-size="45" font-family="Impact, Arial Black, sans-serif" fill="#fff" stroke="#111827" stroke-width="7" paint-order="stroke" letter-spacing=".5">MADALIN STUNT</text><text x="34" y="236" font-size="45" font-family="Impact, Arial Black, sans-serif" fill="#fff" stroke="#111827" stroke-width="7" paint-order="stroke" letter-spacing=".5">CARS 3</text>
</svg>
