<svg xmlns="http://www.w3.org/2000/svg" width="512" height="288" viewBox="0 0 512 288" role="img" aria-label="Pizza Tower">
  <defs>
    <linearGradient id="g1294433471bg" x1="0" y1="0" x2="1" y2="1">
      <stop offset="0" stop-color="#be185d"/>
      <stop offset=".58" stop-color="#fb7185"/>
      <stop offset="1" stop-color="#fef3c7"/>
    </linearGradient>
    <filter id="g1294433471shadow" x="-20%" y="-20%" width="140%" height="140%">
      <feDropShadow dx="0" dy="12" stdDeviation="9" flood-color="#000" flood-opacity=".38"/>
    </filter>
    <pattern id="g1294433471dots" width="34" height="34" patternUnits="userSpaceOnUse">
      <circle cx="4" cy="4" r="2" fill="#fff" opacity=".2"/>
    </pattern>
  </defs>
  <rect width="512" height="288" rx="28" fill="url(#g1294433471bg)"/>
  <rect width="512" height="288" rx="28" fill="url(#g1294433471dots)" opacity=".7"/>
  <circle cx="430" cy="12" r="138" fill="#fff" opacity=".16"/>
  <circle cx="64" cy="298" r="166" fill="#000" opacity=".2"/>
  <g filter="url(#g1294433471shadow)" transform="translate(18 -6) scale(.9)">
    <path d="M241 58l166 62-118 128z" fill="#facc15" stroke="#111827" stroke-width="12" stroke-linejoin="round"/><path d="M241 58c54 8 108 29 166 62" stroke="#f97316" stroke-width="20" stroke-linecap="round"/><circle cx="312" cy="139" r="14" fill="#ef4444"/><circle cx="347" cy="170" r="14" fill="#ef4444"/><circle cx="296" cy="191" r="14" fill="#ef4444"/>
  </g>
  <rect x="25" y="24" width="168" height="38" rx="19" fill="#111827" opacity=".86"/>
  <text x="43" y="50" font-size="18" font-family="Arial Black, Arial, sans-serif" fill="#fef3c7" letter-spacing="1.5">CROWN GAMES</text>
  <rect x="32" y="78" width="130" height="72" rx="18" fill="#f8fafc" stroke="#111827" stroke-width="8" opacity=".92"/>
  <text x="97" y="126" text-anchor="middle" font-size="42" font-family="Arial Black, Arial, sans-serif" fill="#111827">PT</text>
  <text x="34" y="188" font-size="62" font-family="Impact, Arial Black, sans-serif" fill="#fff" stroke="#111827" stroke-width="7" paint-order="stroke" letter-spacing=".5">PIZZA TOWER</text>
</svg>
