<svg xmlns="http://www.w3.org/2000/svg" width="512" height="288" viewBox="0 0 512 288" role="img" aria-label="Sonic R">
  <defs>
    <linearGradient id="g4271932670bg" x1="0" y1="0" x2="1" y2="1">
      <stop offset="0" stop-color="#14532d"/>
      <stop offset=".58" stop-color="#22c55e"/>
      <stop offset="1" stop-color="#fef08a"/>
    </linearGradient>
    <filter id="g4271932670shadow" x="-20%" y="-20%" width="140%" height="140%">
      <feDropShadow dx="0" dy="12" stdDeviation="9" flood-color="#000" flood-opacity=".38"/>
    </filter>
    <pattern id="g4271932670dots" width="34" height="34" patternUnits="userSpaceOnUse">
      <circle cx="4" cy="4" r="2" fill="#fff" opacity=".2"/>
    </pattern>
  </defs>
  <rect width="512" height="288" rx="28" fill="url(#g4271932670bg)"/>
  <rect width="512" height="288" rx="28" fill="url(#g4271932670dots)" opacity=".7"/>
  <circle cx="430" cy="12" r="138" fill="#fff" opacity=".16"/>
  <circle cx="64" cy="298" r="166" fill="#000" opacity=".2"/>
  <g filter="url(#g4271932670shadow)" transform="translate(18 -6) scale(.9)">
    <circle cx="318" cy="151" r="85" fill="#2563eb" stroke="#111827" stroke-width="12"/><path d="M247 132c58-22 107-58 153-104-3 57-25 102-66 135 37 2 69 15 96 42-56 14-107 10-153-13z" fill="#38bdf8" stroke="#111827" stroke-width="9" stroke-linejoin="round"/><ellipse cx="328" cy="181" rx="49" ry="25" fill="#fef3c7" stroke="#111827" stroke-width="8"/><circle cx="294" cy="132" r="11" fill="#fff"/><circle cx="337" cy="128" r="11" fill="#fff"/><circle cx="298" cy="134" r="5" fill="#111827"/><circle cx="341" cy="130" r="5" fill="#111827"/>
  </g>
  <rect x="25" y="24" width="168" height="38" rx="19" fill="#111827" opacity=".86"/>
  <text x="43" y="50" font-size="18" font-family="Arial Black, Arial, sans-serif" fill="#fef3c7" letter-spacing="1.5">CROWN GAMES</text>
  <rect x="32" y="78" width="130" height="72" rx="18" fill="#f8fafc" stroke="#111827" stroke-width="8" opacity=".92"/>
  <text x="97" y="126" text-anchor="middle" font-size="42" font-family="Arial Black, Arial, sans-serif" fill="#111827">SR</text>
  <text x="34" y="188" font-size="62" font-family="Impact, Arial Black, sans-serif" fill="#fff" stroke="#111827" stroke-width="7" paint-order="stroke" letter-spacing=".5">SONIC R</text>
</svg>
