<svg xmlns="http://www.w3.org/2000/svg" width="512" height="288" viewBox="0 0 512 288" role="img" aria-label="Space Bar Clicker">
  <defs>
    <linearGradient id="g2235559173bg" x1="0" y1="0" x2="1" y2="1">
      <stop offset="0" stop-color="#312e81"/>
      <stop offset=".58" stop-color="#a855f7"/>
      <stop offset="1" stop-color="#f0abfc"/>
    </linearGradient>
    <filter id="g2235559173shadow" x="-20%" y="-20%" width="140%" height="140%">
      <feDropShadow dx="0" dy="12" stdDeviation="9" flood-color="#000" flood-opacity=".38"/>
    </filter>
    <pattern id="g2235559173dots" width="34" height="34" patternUnits="userSpaceOnUse">
      <circle cx="4" cy="4" r="2" fill="#fff" opacity=".2"/>
    </pattern>
  </defs>
  <rect width="512" height="288" rx="28" fill="url(#g2235559173bg)"/>
  <rect width="512" height="288" rx="28" fill="url(#g2235559173dots)" opacity=".7"/>
  <circle cx="430" cy="12" r="138" fill="#fff" opacity=".16"/>
  <circle cx="64" cy="298" r="166" fill="#000" opacity=".2"/>
  <g filter="url(#g2235559173shadow)" transform="translate(18 -6) scale(.9)">
    <path d="M331 77c48 28 72 77 62 134-10 58-50 94-107 101-58 7-106-18-132-69l61-22c15 28 37 40 67 36 31-4 50-22 56-52 6-31-7-56-36-73z" fill="#f8fafc" opacity=".88"/><path d="M187 282l-55-154 152 58-61 31 54 54-36 36-54-54z" fill="#facc15" stroke="#111827" stroke-width="8" stroke-linejoin="round"/>
  </g>
  <rect x="25" y="24" width="168" height="38" rx="19" fill="#111827" opacity=".86"/>
  <text x="43" y="50" font-size="18" font-family="Arial Black, Arial, sans-serif" fill="#fef3c7" letter-spacing="1.5">CROWN GAMES</text>
  <rect x="32" y="78" width="130" height="72" rx="18" fill="#f8fafc" stroke="#111827" stroke-width="8" opacity=".92"/>
  <text x="97" y="126" text-anchor="middle" font-size="34" font-family="Arial Black, Arial, sans-serif" fill="#111827">SBC</text>
  <text x="34" y="188" font-size="47" font-family="Impact, Arial Black, sans-serif" fill="#fff" stroke="#111827" stroke-width="7" paint-order="stroke" letter-spacing=".5">SPACE BAR</text><text x="34" y="238" font-size="47" font-family="Impact, Arial Black, sans-serif" fill="#fff" stroke="#111827" stroke-width="7" paint-order="stroke" letter-spacing=".5">CLICKER</text>
</svg>
