<svg xmlns="http://www.w3.org/2000/svg" width="512" height="512" viewBox="0 0 512 512" role="img" aria-label="My Friend Pedro">
  <defs>
    <linearGradient id="bg" x1="0" y1="0" x2="1" y2="1">
      <stop offset="0" stop-color="#111827"/>
      <stop offset=".55" stop-color="#60a5fa"/>
      <stop offset="1" stop-color="#f97316"/>
    </linearGradient>
    <filter id="shadow" x="-20%" y="-20%" width="140%" height="150%">
      <feDropShadow dx="0" dy="16" stdDeviation="12" flood-color="#000" flood-opacity=".35"/>
    </filter>
    <clipPath id="round"><rect width="512" height="512" rx="82"/></clipPath>
  </defs>
  <g clip-path="url(#round)">
    <rect width="512" height="512" fill="url(#bg)"/>
    <circle cx="430" cy="76" r="138" fill="#fff" opacity=".14"/>
    <circle cx="74" cy="446" r="160" fill="#000" opacity=".18"/>
    <path d="M50 90c82 30 167 26 256-12s142-29 192 26v-154H50z" fill="#fff" opacity=".08"/>
    <g filter="url(#shadow)" transform="translate(0 -16)">
      
      <path d="M116 252c12-67 34-96 78-96h124c44 0 66 29 78 96l22 126c6 35-31 57-58 34l-61-51h-86l-61 51c-27 23-64 1-58-34z" fill="#f97316" stroke="#15120d" stroke-width="16" stroke-linecap="round" stroke-linejoin="round"/>
      <circle cx="198" cy="257" r="20" fill="#15120d"/><circle cx="314" cy="241" r="17" fill="#60a5fa"/><circle cx="350" cy="277" r="17" fill="#60a5fa"/>
      <path d="M166 318h64M198 286v64" stroke="#15120d" stroke-width="16" stroke-linecap="round" stroke-linejoin="round"/>
    </g>
    <rect x="0" y="358" width="512" height="154" fill="#090b10" opacity=".76"/>
    <text x="256" y="402" text-anchor="middle" font-family="Impact, 'Arial Black', sans-serif" font-size="48" letter-spacing="1.4" fill="#f8fafc">MY FRIEND PEDRO</text>
    <rect x="19" y="19" width="474" height="474" rx="70" fill="none" stroke="#fff" stroke-width="8" opacity=".7"/>
  </g>
</svg>
