<svg xmlns="http://www.w3.org/2000/svg" width="640" height="360" viewBox="0 0 640 360" role="img" aria-label="Cubefeild">
  <defs>
    <linearGradient id="bg" x1="0" y1="0" x2="1" y2="1">
      <stop offset="0" stop-color="#080914"/>
      <stop offset=".48" stop-color="#8b5cf6"/>
      <stop offset="1" stop-color="#06b6d4"/>
    </linearGradient>
    <filter id="shadow" x="-20%" y="-20%" width="140%" height="150%">
      <feDropShadow dx="0" dy="14" stdDeviation="10" flood-color="#000" flood-opacity=".38"/>
    </filter>
  </defs>
  <rect width="640" height="360" rx="42" fill="url(#bg)"/>
  <circle cx="548" cy="54" r="112" fill="#fff" opacity=".13"/>
  <circle cx="66" cy="332" r="138" fill="#000" opacity=".18"/>
  <path d="M32 74c108 42 219 36 333-18s184-41 243 31v-119H32z" fill="#fff" opacity=".09"/>
  <g filter="url(#shadow)" transform="translate(0 -2)">
    <path d="M320 70l34 68 75 11-54 53 13 75-68-36-68 36 13-75-54-53 75-11z" fill="#ffd447" stroke="#090914" stroke-width="13" stroke-linejoin="round"/>
    <rect x="172" y="135" width="296" height="118" rx="18" fill="#fff8dc" stroke="#090914" stroke-width="10"/>
    <text x="320" y="212" text-anchor="middle" font-family="Impact, Arial Black, sans-serif" font-size="58" fill="#111827" letter-spacing="2">CUBEFEILD</text>
  </g>
  <text x="320" y="312" text-anchor="middle" font-family="Trebuchet MS, Verdana, sans-serif" font-size="25" font-weight="900" fill="#fff" paint-order="stroke" stroke="#05060f" stroke-width="7" stroke-linejoin="round">Cubefeild</text>
</svg>
