<svg xmlns="http://www.w3.org/2000/svg" width="336" height="336" viewBox="0 0 336 336" role="img" aria-label="Github">
  <defs>
    <linearGradient id="githubbg" x1="0" y1="0" x2="1" y2="1">
      <stop offset="0" stop-color="#000000"/>
      <stop offset="1" stop-color="#ffffff"/>
    </linearGradient>
    <linearGradient id="ig" x1="0" y1="0" x2="1" y2="1">
      <stop offset="0" stop-color="#feda75"/><stop offset=".35" stop-color="#fa7e1e"/><stop offset=".68" stop-color="#d62976"/><stop offset="1" stop-color="#4f5bd5"/>
    </linearGradient>
    <filter id="githubshadow" x="-20%" y="-20%" width="140%" height="140%">
      <feDropShadow dx="0" dy="12" stdDeviation="12" flood-color="#000" flood-opacity=".3"/>
    </filter>
  </defs>
  <rect width="336" height="336" rx="72" fill="url(#githubbg)"/>
  <circle cx="292" cy="34" r="92" fill="#fff" opacity=".18"/>
  <circle cx="38" cy="328" r="118" fill="#000" opacity=".16"/>
  <g filter="url(#githubshadow)">
    <circle cx="168" cy="168" r="104" fill="#050505"/><path d="M119 247c4-24 3-39-12-52-28-3-50-21-50-62 0-18 6-33 18-46-2-9-1-23 5-42 0 0 16-5 48 18 27-7 56-7 83 0 32-23 48-18 48-18 6 19 7 33 5 42 12 13 18 28 18 46 0 41-22 59-50 62-16 13-17 28-13 52" fill="#fff"/>
  </g>
</svg>
