<svg xmlns="http://www.w3.org/2000/svg" width="336" height="336" viewBox="0 0 336 336" role="img" aria-label="Pinterest">
  <defs>
    <linearGradient id="pinterestbg" x1="0" y1="0" x2="1" y2="1">
      <stop offset="0" stop-color="#e60023"/>
      <stop offset="1" stop-color="#ffffff"/>
    </linearGradient>
    <linearGradient id="ig" x1="0" y1="0" x2="1" y2="1">
      <stop offset="0" stop-color="#feda75"/><stop offset=".35" stop-color="#fa7e1e"/><stop offset=".68" stop-color="#d62976"/><stop offset="1" stop-color="#4f5bd5"/>
    </linearGradient>
    <filter id="pinterestshadow" x="-20%" y="-20%" width="140%" height="140%">
      <feDropShadow dx="0" dy="12" stdDeviation="12" flood-color="#000" flood-opacity=".3"/>
    </filter>
  </defs>
  <rect width="336" height="336" rx="72" fill="url(#pinterestbg)"/>
  <circle cx="292" cy="34" r="92" fill="#fff" opacity=".18"/>
  <circle cx="38" cy="328" r="118" fill="#000" opacity=".16"/>
  <g filter="url(#pinterestshadow)">
    <circle cx="168" cy="168" r="105" fill="#e60023"/><path d="M152 229c11-44 20-82 26-111-8-13-32-7-32 21 0 17 6 29 16 35-9 14-29 16-42 3-11-11-16-28-12-48 8-41 47-64 91-55 44 10 69 45 59 87-9 40-39 66-75 60-7-1-14-5-20-10l-9 35z" fill="#fff"/>
  </g>
</svg>
