<svg xmlns="http://www.w3.org/2000/svg" width="336" height="336" viewBox="0 0 336 336" role="img" aria-label="Premier League">
  <defs>
    <linearGradient id="premierleaguebg" x1="0" y1="0" x2="1" y2="1">
      <stop offset="0" stop-color="#c6ff00"/>
      <stop offset="1" stop-color="#3d195b"/>
    </linearGradient>
    <linearGradient id="ig" x1="0" y1="0" x2="1" y2="1">
      <stop offset="0" stop-color="#feda75"/><stop offset=".35" stop-color="#fa7e1e"/><stop offset=".68" stop-color="#d62976"/><stop offset="1" stop-color="#4f5bd5"/>
    </linearGradient>
    <filter id="premierleagueshadow" x="-20%" y="-20%" width="140%" height="140%">
      <feDropShadow dx="0" dy="12" stdDeviation="12" flood-color="#000" flood-opacity=".3"/>
    </filter>
  </defs>
  <rect width="336" height="336" rx="72" fill="url(#premierleaguebg)"/>
  <circle cx="292" cy="34" r="92" fill="#fff" opacity=".18"/>
  <circle cx="38" cy="328" r="118" fill="#000" opacity=".16"/>
  <g filter="url(#premierleagueshadow)">
    <path d="M172 55c49 14 83 58 83 111 0 64-51 116-114 116-38 0-71-18-92-45 51 13 86-1 104-38-33-4-56-27-56-58 0-34 26-60 60-60 6 0 11 1 16 2z" fill="#5f267f"/><path d="M194 64l46-13-23 41z" fill="#5f267f"/>
  </g>
</svg>
