<svg xmlns="http://www.w3.org/2000/svg" width="336" height="336" viewBox="0 0 336 336" role="img" aria-label="Snapchat">
  <defs>
    <linearGradient id="snapchatbg" x1="0" y1="0" x2="1" y2="1">
      <stop offset="0" stop-color="#fffc00"/>
      <stop offset="1" stop-color="#111111"/>
    </linearGradient>
    <linearGradient id="ig" x1="0" y1="0" x2="1" y2="1">
      <stop offset="0" stop-color="#feda75"/><stop offset=".35" stop-color="#fa7e1e"/><stop offset=".68" stop-color="#d62976"/><stop offset="1" stop-color="#4f5bd5"/>
    </linearGradient>
    <filter id="snapchatshadow" x="-20%" y="-20%" width="140%" height="140%">
      <feDropShadow dx="0" dy="12" stdDeviation="12" flood-color="#000" flood-opacity=".3"/>
    </filter>
  </defs>
  <rect width="336" height="336" rx="72" fill="url(#snapchatbg)"/>
  <circle cx="292" cy="34" r="92" fill="#fff" opacity=".18"/>
  <circle cx="38" cy="328" r="118" fill="#000" opacity=".16"/>
  <g filter="url(#snapchatshadow)">
    <rect width="336" height="336" rx="72" fill="#fffc00"/><path d="M168 67c38 0 58 29 58 70v34c14 10 30 16 49 19-8 22-31 31-53 36-12 26-31 42-54 42s-42-16-54-42c-22-5-45-14-53-36 19-3 35-9 49-19v-34c0-41 20-70 58-70z" fill="#fff" stroke="#111" stroke-width="10"/>
  </g>
</svg>
