<svg xmlns="http://www.w3.org/2000/svg" width="336" height="336" viewBox="0 0 336 336" role="img" aria-label="Tiktok">
  <defs>
    <linearGradient id="tiktokbg" x1="0" y1="0" x2="1" y2="1">
      <stop offset="0" stop-color="#000000"/>
      <stop offset="1" stop-color="#00f2ea"/>
    </linearGradient>
    <linearGradient id="ig" x1="0" y1="0" x2="1" y2="1">
      <stop offset="0" stop-color="#feda75"/><stop offset=".35" stop-color="#fa7e1e"/><stop offset=".68" stop-color="#d62976"/><stop offset="1" stop-color="#4f5bd5"/>
    </linearGradient>
    <filter id="tiktokshadow" x="-20%" y="-20%" width="140%" height="140%">
      <feDropShadow dx="0" dy="12" stdDeviation="12" flood-color="#000" flood-opacity=".3"/>
    </filter>
  </defs>
  <rect width="336" height="336" rx="72" fill="url(#tiktokbg)"/>
  <circle cx="292" cy="34" r="92" fill="#fff" opacity=".18"/>
  <circle cx="38" cy="328" r="118" fill="#000" opacity=".16"/>
  <g filter="url(#tiktokshadow)">
    <rect width="336" height="336" rx="72" fill="#050505"/><path d="M194 77v113c0 42-27 70-72 70-36 0-63-24-63-58 0-36 29-59 70-55v38c-19-3-31 5-31 19 0 13 10 22 25 22 17 0 27-12 27-34V77z" fill="#25f4ee"/><path d="M205 77c12 38 37 57 73 62v43c-31-2-56-13-74-31v39" fill="none" stroke="#fe2c55" stroke-width="19"/>
  </g>
</svg>
