<svg xmlns="http://www.w3.org/2000/svg" width="336" height="336" viewBox="0 0 336 336" role="img" aria-label="Twitter">
  <defs>
    <linearGradient id="twitterbg" x1="0" y1="0" x2="1" y2="1">
      <stop offset="0" stop-color="#1da1f2"/>
      <stop offset="1" stop-color="#ffffff"/>
    </linearGradient>
    <linearGradient id="ig" x1="0" y1="0" x2="1" y2="1">
      <stop offset="0" stop-color="#feda75"/><stop offset=".35" stop-color="#fa7e1e"/><stop offset=".68" stop-color="#d62976"/><stop offset="1" stop-color="#4f5bd5"/>
    </linearGradient>
    <filter id="twittershadow" x="-20%" y="-20%" width="140%" height="140%">
      <feDropShadow dx="0" dy="12" stdDeviation="12" flood-color="#000" flood-opacity=".3"/>
    </filter>
  </defs>
  <rect width="336" height="336" rx="72" fill="url(#twitterbg)"/>
  <circle cx="292" cy="34" r="92" fill="#fff" opacity=".18"/>
  <circle cx="38" cy="328" r="118" fill="#000" opacity=".16"/>
  <g filter="url(#twittershadow)">
    <rect width="336" height="336" rx="72" fill="#1da1f2"/><path d="M278 118c-8 4-17 7-27 8 10-6 17-15 20-26-9 5-20 10-31 12-28-30-77-8-69 32-38-2-72-20-94-48-13 22-7 50 16 64-8 0-16-2-23-6 0 24 17 45 41 50-8 2-16 3-24 1 7 21 27 36 51 37-22 17-49 25-78 22 24 15 52 24 83 24 100 0 157-86 153-164 10-7 19-16 26-26z" fill="#fff"/>
  </g>
</svg>
